<?xml version="1.0" encoding="utf-8"?>
<!-- Generator: Adobe Illustrator 21.0.0, SVG Export Plug-In . SVG Version: 6.00 Build 0)  -->
<svg version="1.1" id="Layer_1" xmlns="http://www.w3.org/2000/svg" xmlns:xlink="http://www.w3.org/1999/xlink" x="0px" y="0px"
	 viewBox="0 0 1200 526" style="enable-background:new 0 0 1200 526;" xml:space="preserve">
<style type="text/css">
	.st0{fill:#FFFFFF;}
</style>
<path class="st0" d="M947.7,209.8l56.4,54.3c0,0,5.4,5.6,9.3,2.3c3.9-3.3-2-9.3-2-9.3l-60.6-63.5c-32.4-36.1,0.7-54.5,27.6-24.4
	c27,30.1,53.3,56.4,53.3,56.4c8,7.4,20.8,1.5,9.6-11.1c-11.2-12.6-51-57-51-57c-20.9-24.3,8.1-42.7,28.3-20.1
	c20.2,22.6,61.9,69,61.9,69c6.9,8.3,16.7,1.9,6.9-7.5l-39.4-52.6c-10-13.2,8.6-30.9,23.5-14.4c21.6,24.1,170.9,185.1,85.4,278.4
	c-60.4,71.6-241,42.5-183.5,23.4c57.5-19.1,92.4-56.1,32.8-123.1c0,0-58-55.1-79-78.4C906.3,208.8,932,193.9,947.7,209.8z"/>
<path class="st0" d="M272.5,219L218,273.5c0,0-5.3,5.6-9,2.3c-3.8-3.3,1.9-9.4,1.9-9.4l58.5-63.7c31.3-36.3-0.6-54.7-26.7-24.5
	c-26.1,30.2-51.5,56.6-51.5,56.6c-7.7,7.4-20.1,1.5-9.3-11.1c10.9-12.6,49.3-57.2,49.3-57.2c20.2-24.4-7.8-42.9-27.4-20.2
	c-19.6,22.7-59.8,69.2-59.8,69.2c-6.7,8.3-16.1,1.9-6.7-7.5l38.1-52.8c9.6-13.2-8.4-31-22.7-14.4C132,165-12.3,326.5,70.3,420.1
	c58.4,71.8,232.9,42.6,177.4,23.5c-55.5-19.1-89.3-56.3-31.7-123.5c0,0,56.1-55.3,76.3-78.7C312.4,218,287.6,203,272.5,219z"/>
<path class="st0" d="M619.2,516L380.1,273.5c-58.2-59-57.5-154.1,1.5-212.3c59-58.2,154.1-57.5,212.3,1.5l27.3,27.7L650,61.7
	c58.8-58.5,153.8-58.3,212.3,0.5c58.5,58.8,58.3,153.8-0.5,212.3L619.2,516z"/>
</svg>
